<?xml version="1.0" encoding="UTF-8" standalone="no"?><svg xmlns="http://www.w3.org/2000/svg" xmlns:xlink="http://www.w3.org/1999/xlink" contentScriptType="application/ecmascript" contentStyleType="text/css" height="2226px" preserveAspectRatio="none" style="width:2192px;height:2226px;" version="1.1" viewBox="0 0 2192 2226" width="2192px" zoomAndPan="magnify"><defs><filter height="300%" id="fexwmq6smffnw" width="300%" x="-1" y="-1"><feGaussianBlur result="blurOut" stdDeviation="4.0"/><feColorMatrix in="blurOut" result="blurOut2" type="matrix" values="0 0 0 0 0 0 0 0 0 0 0 0 0 0 0 0 0 0 .4 0"/><feOffset dx="8.0" dy="8.0" in="blurOut2" result="blurOut3"/><feBlend in="SourceGraphic" in2="blurOut3" mode="normal"/></filter></defs><g><!--cluster de.hems.view--><polygon fill="#EEEEEE" filter="url(#fexwmq6smffnw)" points="44,227,250,227,264,274.2188,536,274.2188,536,2202,44,2202,44,227" style="stroke: #000000; stroke-width: 3.0;"/><line style="stroke: #000000; stroke-width: 3.0;" x1="44" x2="264" y1="274.2188" y2="274.2188"/><text fill="#000000" font-family="sans-serif" font-size="28" font-weight="bold" lengthAdjust="spacingAndGlyphs" textLength="194" x="52" y="260.0664">de.hems.view</text><!--cluster de.hems.model--><polygon fill="#CCCCCC" filter="url(#fexwmq6smffnw)" points="584,48,810,48,824,95.2188,2148,95.2188,2148,1156,584,1156,584,48" style="stroke: #000000; stroke-width: 3.0;"/><line style="stroke: #000000; stroke-width: 3.0;" x1="584" x2="824" y1="95.2188" y2="95.2188"/><text fill="#000000" font-family="sans-serif" font-size="28" font-weight="bold" lengthAdjust="spacingAndGlyphs" textLength="214" x="592" y="81.0664">de.hems.model</text><!--class SokobanUI--><rect fill="#FEFECE" filter="url(#fexwmq6smffnw)" height="179.0156" id="SokobanUI" style="stroke: #A80036; stroke-width: 3.0;" width="230" x="175" y="299"/><ellipse cx="224.8" cy="331" fill="#ADD1B2" rx="22" ry="22" style="stroke: #A80036; stroke-width: 2.0;"/><path d="M230.3313,322.75 Q230.6438,322.3125 231.0188,322.0938 Q231.3938,321.875 231.8313,321.875 Q232.5813,321.875 233.05,322.3906 Q233.5188,322.9063 233.5188,324.125 L233.5188,327.0313 Q233.5188,328.25 233.05,328.7813 Q232.5813,329.3125 231.8313,329.3125 Q231.1438,329.3125 230.7375,328.9063 Q230.3313,328.5313 230.1125,327.5 Q230.0188,326.7813 229.6438,326.4063 Q228.9875,325.6563 227.7688,325.2188 Q226.55,324.7813 225.3,324.7813 Q223.7688,324.7813 222.5031,325.4375 Q221.2375,326.0938 220.2531,327.5938 Q219.2688,329.0938 219.2688,331.1563 L219.2688,333.3438 Q219.2688,335.8125 221.05,337.4531 Q222.8313,339.0938 226.0188,339.0938 Q227.8938,339.0938 229.2063,338.5938 Q229.9875,338.2813 230.8313,337.4063 Q231.3625,336.875 231.6594,336.7188 Q231.9563,336.5625 232.3625,336.5625 Q233.0188,336.5625 233.5344,337.0781 Q234.05,337.5938 234.05,338.2813 Q234.05,338.9688 233.3625,339.7813 Q232.3625,340.9375 230.7688,341.5938 Q228.6125,342.5 226.0188,342.5 Q222.9875,342.5 220.5813,341.25 Q218.6125,340.25 217.2375,338.1094 Q215.8625,335.9688 215.8625,333.4063 L215.8625,331.0938 Q215.8625,328.4375 217.0969,326.1406 Q218.3313,323.8438 220.5188,322.6094 Q222.7063,321.375 225.175,321.375 Q226.6438,321.375 227.9406,321.7031 Q229.2375,322.0313 230.3313,322.75 Z "/><text fill="#000000" font-family="sans-serif" font-size="24" lengthAdjust="spacingAndGlyphs" textLength="122" x="257.2" y="340.8203">SokobanUI</text><line style="stroke: #A80036; stroke-width: 3.0;" x1="177" x2="403" y1="363" y2="363"/><line style="stroke: #A80036; stroke-width: 3.0;" x1="177" x2="403" y1="379" y2="379"/><ellipse cx="197" cy="401" fill="#84BE84" rx="6" ry="6" style="stroke: #038048; stroke-width: 2.0;"/><text fill="#000000" font-family="sans-serif" font-size="22" lengthAdjust="spacingAndGlyphs" textLength="178" x="215" y="409.8379">main(args:String[])</text><ellipse cx="197" cy="428.6719" fill="#84BE84" rx="6" ry="6" style="stroke: #038048; stroke-width: 2.0;"/><text fill="#000000" font-family="sans-serif" font-size="22" lengthAdjust="spacingAndGlyphs" textLength="118" x="215" y="437.5098">SobokanUI()</text><rect fill="#F24D5C" height="12" style="stroke: #C82930; stroke-width: 2.0;" width="12" x="191" y="450.3438"/><text fill="#000000" font-family="sans-serif" font-size="22" lengthAdjust="spacingAndGlyphs" textLength="60" x="215" y="465.1816">initUI()</text><!--class GameMenu--><rect fill="#FEFECE" filter="url(#fexwmq6smffnw)" height="151.3438" id="GameMenu" style="stroke: #A80036; stroke-width: 3.0;" width="308" x="136" y="875"/><ellipse cx="218.2" cy="907" fill="#ADD1B2" rx="22" ry="22" style="stroke: #A80036; stroke-width: 2.0;"/><path d="M223.7313,898.75 Q224.0438,898.3125 224.4188,898.0938 Q224.7938,897.875 225.2313,897.875 Q225.9813,897.875 226.45,898.3906 Q226.9188,898.9063 226.9188,900.125 L226.9188,903.0313 Q226.9188,904.25 226.45,904.7813 Q225.9813,905.3125 225.2313,905.3125 Q224.5438,905.3125 224.1375,904.9063 Q223.7313,904.5313 223.5125,903.5 Q223.4188,902.7813 223.0438,902.4063 Q222.3875,901.6563 221.1688,901.2188 Q219.95,900.7813 218.7,900.7813 Q217.1688,900.7813 215.9031,901.4375 Q214.6375,902.0938 213.6531,903.5938 Q212.6688,905.0938 212.6688,907.1563 L212.6688,909.3438 Q212.6688,911.8125 214.45,913.4531 Q216.2313,915.0938 219.4188,915.0938 Q221.2938,915.0938 222.6063,914.5938 Q223.3875,914.2813 224.2313,913.4063 Q224.7625,912.875 225.0594,912.7188 Q225.3563,912.5625 225.7625,912.5625 Q226.4188,912.5625 226.9344,913.0781 Q227.45,913.5938 227.45,914.2813 Q227.45,914.9688 226.7625,915.7813 Q225.7625,916.9375 224.1688,917.5938 Q222.0125,918.5 219.4188,918.5 Q216.3875,918.5 213.9813,917.25 Q212.0125,916.25 210.6375,914.1094 Q209.2625,911.9688 209.2625,909.4063 L209.2625,907.0938 Q209.2625,904.4375 210.4969,902.1406 Q211.7313,899.8438 213.9188,898.6094 Q216.1063,897.375 218.575,897.375 Q220.0438,897.375 221.3406,897.7031 Q222.6375,898.0313 223.7313,898.75 Z "/><text fill="#000000" font-family="sans-serif" font-size="24" lengthAdjust="spacingAndGlyphs" textLength="128" x="257.8" y="916.8203">GameMenu</text><line style="stroke: #A80036; stroke-width: 3.0;" x1="138" x2="442" y1="939" y2="939"/><rect fill="none" height="12" style="stroke: #C82930; stroke-width: 2.0;" width="12" x="152" y="955"/><text fill="#000000" font-family="sans-serif" font-size="22" lengthAdjust="spacingAndGlyphs" textLength="132" x="176" y="969.8379">frame:JFrame</text><line style="stroke: #A80036; stroke-width: 3.0;" x1="138" x2="442" y1="982.6719" y2="982.6719"/><ellipse cx="158" cy="1004.6719" fill="#84BE84" rx="6" ry="6" style="stroke: #038048; stroke-width: 2.0;"/><text fill="#000000" font-family="sans-serif" font-size="22" lengthAdjust="spacingAndGlyphs" textLength="256" x="176" y="1013.5098">GameMenu(frame:JFrame)</text><!--class GameBoard--><rect fill="#FEFECE" filter="url(#fexwmq6smffnw)" height="926.1563" id="GameBoard" style="stroke: #A80036; stroke-width: 3.0;" width="428" x="76" y="1244"/><ellipse cx="214.5" cy="1276" fill="#ADD1B2" rx="22" ry="22" style="stroke: #A80036; stroke-width: 2.0;"/><path d="M220.0313,1267.75 Q220.3438,1267.3125 220.7188,1267.0938 Q221.0938,1266.875 221.5313,1266.875 Q222.2813,1266.875 222.75,1267.3906 Q223.2188,1267.9063 223.2188,1269.125 L223.2188,1272.0313 Q223.2188,1273.25 222.75,1273.7813 Q222.2813,1274.3125 221.5313,1274.3125 Q220.8438,1274.3125 220.4375,1273.9063 Q220.0313,1273.5313 219.8125,1272.5 Q219.7188,1271.7813 219.3438,1271.4063 Q218.6875,1270.6563 217.4688,1270.2188 Q216.25,1269.7813 215,1269.7813 Q213.4688,1269.7813 212.2031,1270.4375 Q210.9375,1271.0938 209.9531,1272.5938 Q208.9688,1274.0938 208.9688,1276.1563 L208.9688,1278.3438 Q208.9688,1280.8125 210.75,1282.4531 Q212.5313,1284.0938 215.7188,1284.0938 Q217.5938,1284.0938 218.9063,1283.5938 Q219.6875,1283.2813 220.5313,1282.4063 Q221.0625,1281.875 221.3594,1281.7188 Q221.6563,1281.5625 222.0625,1281.5625 Q222.7188,1281.5625 223.2344,1282.0781 Q223.75,1282.5938 223.75,1283.2813 Q223.75,1283.9688 223.0625,1284.7813 Q222.0625,1285.9375 220.4688,1286.5938 Q218.3125,1287.5 215.7188,1287.5 Q212.6875,1287.5 210.2813,1286.25 Q208.3125,1285.25 206.9375,1283.1094 Q205.5625,1280.9688 205.5625,1278.4063 L205.5625,1276.0938 Q205.5625,1273.4375 206.7969,1271.1406 Q208.0313,1268.8438 210.2188,1267.6094 Q212.4063,1266.375 214.875,1266.375 Q216.3438,1266.375 217.6406,1266.7031 Q218.9375,1267.0313 220.0313,1267.75 Z "/><text fill="#000000" font-family="sans-serif" font-size="24" lengthAdjust="spacingAndGlyphs" textLength="134" x="255.5" y="1285.8203">GameBoard</text><line style="stroke: #A80036; stroke-width: 3.0;" x1="78" x2="502" y1="1308" y2="1308"/><rect fill="none" height="12" style="stroke: #C82930; stroke-width: 2.0;" width="12" x="92" y="1324"/><text fill="#000000" font-family="sans-serif" font-size="22" lengthAdjust="spacingAndGlyphs" textLength="68" x="116" y="1338.8379">TOP:int</text><rect fill="none" height="12" style="stroke: #C82930; stroke-width: 2.0;" width="12" x="92" y="1351.6719"/><text fill="#000000" font-family="sans-serif" font-size="22" lengthAdjust="spacingAndGlyphs" textLength="88" x="116" y="1366.5098">RIGHT:int</text><rect fill="none" height="12" style="stroke: #C82930; stroke-width: 2.0;" width="12" x="92" y="1379.3438"/><text fill="#000000" font-family="sans-serif" font-size="22" lengthAdjust="spacingAndGlyphs" textLength="92" x="116" y="1394.1816">DOWN:int</text><rect fill="none" height="12" style="stroke: #C82930; stroke-width: 2.0;" width="12" x="92" y="1407.0156"/><text fill="#000000" font-family="sans-serif" font-size="22" lengthAdjust="spacingAndGlyphs" textLength="76" x="116" y="1421.8535">LEFT:int</text><rect fill="none" height="12" style="stroke: #C82930; stroke-width: 2.0;" width="12" x="92" y="1434.6875"/><text fill="#000000" font-family="sans-serif" font-size="22" lengthAdjust="spacingAndGlyphs" textLength="132" x="116" y="1449.5254">frame:JFrame</text><rect fill="none" height="12" style="stroke: #C82930; stroke-width: 2.0;" width="12" x="92" y="1462.3594"/><text fill="#000000" font-family="sans-serif" font-size="22" lengthAdjust="spacingAndGlyphs" textLength="168" x="116" y="1477.1973">winDialog:JDialog</text><rect fill="none" height="12" style="stroke: #C82930; stroke-width: 2.0;" width="12" x="92" y="1490.0313"/><text fill="#000000" font-family="sans-serif" font-size="22" lengthAdjust="spacingAndGlyphs" textLength="194" x="116" y="1504.8691">mItemExit:JMenuItem</text><rect fill="none" height="12" style="stroke: #C82930; stroke-width: 2.0;" width="12" x="92" y="1517.7031"/><text fill="#000000" font-family="sans-serif" font-size="22" lengthAdjust="spacingAndGlyphs" textLength="230" x="116" y="1532.541">mItemRestart:JMenuItem</text><rect fill="none" height="12" style="stroke: #C82930; stroke-width: 2.0;" width="12" x="92" y="1545.375"/><text fill="#000000" font-family="sans-serif" font-size="22" lengthAdjust="spacingAndGlyphs" textLength="178" x="116" y="1560.2129">jbNextMap:JButton</text><rect fill="none" height="12" style="stroke: #C82930; stroke-width: 2.0;" width="12" x="92" y="1573.0469"/><text fill="#000000" font-family="sans-serif" font-size="22" lengthAdjust="spacingAndGlyphs" textLength="204" x="116" y="1587.8848">jbRestartMap:JButton</text><rect fill="none" height="12" style="stroke: #C82930; stroke-width: 2.0;" width="12" x="92" y="1600.7188"/><text fill="#000000" font-family="sans-serif" font-size="22" lengthAdjust="spacingAndGlyphs" textLength="128" x="116" y="1615.5566">jbExit:JButton</text><rect fill="none" height="12" style="stroke: #C82930; stroke-width: 2.0;" width="12" x="92" y="1628.3906"/><text fill="#000000" font-family="sans-serif" font-size="22" lengthAdjust="spacingAndGlyphs" textLength="212" x="116" y="1643.2285">walls:ArrayList&lt;Wall&gt;</text><rect fill="none" height="12" style="stroke: #C82930; stroke-width: 2.0;" width="12" x="92" y="1656.0625"/><text fill="#000000" font-family="sans-serif" font-size="22" lengthAdjust="spacingAndGlyphs" textLength="218" x="116" y="1670.9004">boxes:ArrayList&lt;Box&gt;</text><rect fill="none" height="12" style="stroke: #C82930; stroke-width: 2.0;" width="12" x="92" y="1683.7344"/><text fill="#000000" font-family="sans-serif" font-size="22" lengthAdjust="spacingAndGlyphs" textLength="218" x="116" y="1698.5723">spots:ArrayList&lt;Spot&gt;</text><rect fill="none" height="12" style="stroke: #C82930; stroke-width: 2.0;" width="12" x="92" y="1711.4063"/><text fill="#000000" font-family="sans-serif" font-size="22" lengthAdjust="spacingAndGlyphs" textLength="212" x="116" y="1726.2441">floor:ArrayList&lt;Floor&gt;</text><rect fill="none" height="12" style="stroke: #C82930; stroke-width: 2.0;" width="12" x="92" y="1739.0781"/><text fill="#000000" font-family="sans-serif" font-size="22" lengthAdjust="spacingAndGlyphs" textLength="126" x="116" y="1753.916">player:Player</text><rect fill="none" height="12" style="stroke: #C82930; stroke-width: 2.0;" width="12" x="92" y="1766.75"/><text fill="#000000" font-family="sans-serif" font-size="22" lengthAdjust="spacingAndGlyphs" textLength="210" x="116" y="1781.5879">isGameFinish:boolean</text><rect fill="none" height="12" style="stroke: #C82930; stroke-width: 2.0;" width="12" x="92" y="1794.4219"/><text fill="#000000" font-family="sans-serif" font-size="22" lengthAdjust="spacingAndGlyphs" textLength="106" x="116" y="1809.2598">OFFSET:int</text><rect fill="none" height="12" style="stroke: #C82930; stroke-width: 2.0;" width="12" x="92" y="1822.0938"/><text fill="#000000" font-family="sans-serif" font-size="22" lengthAdjust="spacingAndGlyphs" textLength="72" x="116" y="1836.9316">SIZE:int</text><rect fill="none" height="12" style="stroke: #C82930; stroke-width: 2.0;" width="12" x="92" y="1849.7656"/><text fill="#000000" font-family="sans-serif" font-size="22" lengthAdjust="spacingAndGlyphs" textLength="82" x="116" y="1864.6035">width:int</text><line style="stroke: #A80036; stroke-width: 3.0;" x1="78" x2="502" y1="1877.4375" y2="1877.4375"/><ellipse cx="98" cy="1899.4375" fill="#84BE84" rx="6" ry="6" style="stroke: #038048; stroke-width: 2.0;"/><text fill="#000000" font-family="sans-serif" font-size="22" lengthAdjust="spacingAndGlyphs" textLength="262" x="116" y="1908.2754">GameBoard(frame,JFrame)</text><rect fill="#F24D5C" height="12" style="stroke: #C82930; stroke-width: 2.0;" width="12" x="92" y="1921.1094"/><text fill="#000000" font-family="sans-serif" font-size="22" lengthAdjust="spacingAndGlyphs" textLength="156" x="116" y="1935.9473">initGameBoard()</text><rect fill="#F24D5C" height="12" style="stroke: #C82930; stroke-width: 2.0;" width="12" x="92" y="1948.7813"/><text fill="#000000" font-family="sans-serif" font-size="22" lengthAdjust="spacingAndGlyphs" textLength="224" x="116" y="1963.6191">paintWorld(g:Graphics)</text><ellipse cx="98" cy="1982.4531" fill="#84BE84" rx="6" ry="6" style="stroke: #038048; stroke-width: 2.0;"/><text fill="#000000" font-family="sans-serif" font-size="22" lengthAdjust="spacingAndGlyphs" textLength="276" x="116" y="1991.291">paintComponent(g:Graphics)</text><ellipse cx="98" cy="2010.125" fill="#84BE84" rx="6" ry="6" style="stroke: #038048; stroke-width: 2.0;"/><text fill="#000000" font-family="sans-serif" font-size="22" lengthAdjust="spacingAndGlyphs" textLength="240" x="116" y="2018.9629">keyPressed(e:KeyEvent)</text><rect fill="#F24D5C" height="12" style="stroke: #C82930; stroke-width: 2.0;" width="12" x="92" y="2031.7969"/><text fill="#000000" font-family="sans-serif" font-size="22" lengthAdjust="spacingAndGlyphs" textLength="144" x="116" y="2046.6348">isGameFinish()</text><rect fill="#F24D5C" height="12" style="stroke: #C82930; stroke-width: 2.0;" width="12" x="92" y="2059.4688"/><text fill="#000000" font-family="sans-serif" font-size="22" lengthAdjust="spacingAndGlyphs" textLength="258" x="116" y="2074.3066">isBoxCollision(direction:int)</text><rect fill="#F24D5C" height="12" style="stroke: #C82930; stroke-width: 2.0;" width="12" x="92" y="2087.1406"/><text fill="#000000" font-family="sans-serif" font-size="22" lengthAdjust="spacingAndGlyphs" textLength="376" x="116" y="2101.9785">isWallCollision(actor:Actor,direction:int)</text><ellipse cx="98" cy="2120.8125" fill="#84BE84" rx="6" ry="6" style="stroke: #038048; stroke-width: 2.0;"/><text fill="#000000" font-family="sans-serif" font-size="22" lengthAdjust="spacingAndGlyphs" textLength="308" x="116" y="2129.6504">actionPerformed(e:ActionEvent)</text><rect fill="#F24D5C" height="12" style="stroke: #C82930; stroke-width: 2.0;" width="12" x="92" y="2142.4844"/><text fill="#000000" font-family="sans-serif" font-size="22" lengthAdjust="spacingAndGlyphs" textLength="136" x="116" y="2157.3223">restartGame()</text><!--class Actor--><rect fill="#FEFECE" filter="url(#fexwmq6smffnw)" height="538.75" id="Actor" style="stroke: #A80036; stroke-width: 3.0;" width="466" x="1173" y="120"/><ellipse cx="1370.5" cy="152" fill="#ADD1B2" rx="22" ry="22" style="stroke: #A80036; stroke-width: 2.0;"/><path d="M1376.0313,143.75 Q1376.3438,143.3125 1376.7188,143.0938 Q1377.0938,142.875 1377.5313,142.875 Q1378.2813,142.875 1378.75,143.3906 Q1379.2188,143.9063 1379.2188,145.125 L1379.2188,148.0313 Q1379.2188,149.25 1378.75,149.7813 Q1378.2813,150.3125 1377.5313,150.3125 Q1376.8438,150.3125 1376.4375,149.9063 Q1376.0313,149.5313 1375.8125,148.5 Q1375.7188,147.7813 1375.3438,147.4063 Q1374.6875,146.6563 1373.4688,146.2188 Q1372.25,145.7813 1371,145.7813 Q1369.4688,145.7813 1368.2031,146.4375 Q1366.9375,147.0938 1365.9531,148.5938 Q1364.9688,150.0938 1364.9688,152.1563 L1364.9688,154.3438 Q1364.9688,156.8125 1366.75,158.4531 Q1368.5313,160.0938 1371.7188,160.0938 Q1373.5938,160.0938 1374.9063,159.5938 Q1375.6875,159.2813 1376.5313,158.4063 Q1377.0625,157.875 1377.3594,157.7188 Q1377.6563,157.5625 1378.0625,157.5625 Q1378.7188,157.5625 1379.2344,158.0781 Q1379.75,158.5938 1379.75,159.2813 Q1379.75,159.9688 1379.0625,160.7813 Q1378.0625,161.9375 1376.4688,162.5938 Q1374.3125,163.5 1371.7188,163.5 Q1368.6875,163.5 1366.2813,162.25 Q1364.3125,161.25 1362.9375,159.1094 Q1361.5625,156.9688 1361.5625,154.4063 L1361.5625,152.0938 Q1361.5625,149.4375 1362.7969,147.1406 Q1364.0313,144.8438 1366.2188,143.6094 Q1368.4063,142.375 1370.875,142.375 Q1372.3438,142.375 1373.6406,142.7031 Q1374.9375,143.0313 1376.0313,143.75 Z "/><text fill="#000000" font-family="sans-serif" font-size="24" lengthAdjust="spacingAndGlyphs" textLength="54" x="1411.5" y="161.8203">Actor</text><line style="stroke: #A80036; stroke-width: 3.0;" x1="1175" x2="1637" y1="184" y2="184"/><rect fill="none" height="12" style="stroke: #C82930; stroke-width: 2.0;" width="12" x="1189" y="200"/><text fill="#000000" font-family="sans-serif" font-size="22" lengthAdjust="spacingAndGlyphs" textLength="78" x="1213" y="214.8379">SIZE: int</text><rect fill="none" height="12" style="stroke: #C82930; stroke-width: 2.0;" width="12" x="1189" y="227.6719"/><text fill="#000000" font-family="sans-serif" font-size="22" lengthAdjust="spacingAndGlyphs" textLength="40" x="1213" y="242.5098">x:int</text><rect fill="none" height="12" style="stroke: #C82930; stroke-width: 2.0;" width="12" x="1189" y="255.3438"/><text fill="#000000" font-family="sans-serif" font-size="22" lengthAdjust="spacingAndGlyphs" textLength="40" x="1213" y="270.1816">y:int</text><rect fill="none" height="12" style="stroke: #C82930; stroke-width: 2.0;" width="12" x="1189" y="283.0156"/><text fill="#000000" font-family="sans-serif" font-size="22" lengthAdjust="spacingAndGlyphs" textLength="118" x="1213" y="297.8535">image:Image</text><line style="stroke: #A80036; stroke-width: 3.0;" x1="1175" x2="1637" y1="310.6875" y2="310.6875"/><ellipse cx="1195" cy="332.6875" fill="#84BE84" rx="6" ry="6" style="stroke: #038048; stroke-width: 2.0;"/><text fill="#000000" font-family="sans-serif" font-size="22" lengthAdjust="spacingAndGlyphs" textLength="156" x="1213" y="341.5254">Actor(x:int,y:int)</text><ellipse cx="1195" cy="360.3594" fill="#84BE84" rx="6" ry="6" style="stroke: #038048; stroke-width: 2.0;"/><text fill="#000000" font-family="sans-serif" font-size="22" lengthAdjust="spacingAndGlyphs" textLength="102" x="1213" y="369.1973">getImage()</text><ellipse cx="1195" cy="388.0313" fill="#84BE84" rx="6" ry="6" style="stroke: #038048; stroke-width: 2.0;"/><text fill="#000000" font-family="sans-serif" font-size="22" lengthAdjust="spacingAndGlyphs" textLength="220" x="1213" y="396.8691">setImage(image:Image)</text><ellipse cx="1195" cy="415.7031" fill="#84BE84" rx="6" ry="6" style="stroke: #038048; stroke-width: 2.0;"/><text fill="#000000" font-family="sans-serif" font-size="22" lengthAdjust="spacingAndGlyphs" textLength="100" x="1213" y="424.541">setX(x:int)</text><ellipse cx="1195" cy="443.375" fill="#84BE84" rx="6" ry="6" style="stroke: #038048; stroke-width: 2.0;"/><text fill="#000000" font-family="sans-serif" font-size="22" lengthAdjust="spacingAndGlyphs" textLength="88" x="1213" y="452.2129">getX():int</text><ellipse cx="1195" cy="471.0469" fill="#84BE84" rx="6" ry="6" style="stroke: #038048; stroke-width: 2.0;"/><text fill="#000000" font-family="sans-serif" font-size="22" lengthAdjust="spacingAndGlyphs" textLength="102" x="1213" y="479.8848">setY(y:int)</text><ellipse cx="1195" cy="498.7188" fill="#84BE84" rx="6" ry="6" style="stroke: #038048; stroke-width: 2.0;"/><text fill="#000000" font-family="sans-serif" font-size="22" lengthAdjust="spacingAndGlyphs" textLength="90" x="1213" y="507.5566">getY():int</text><ellipse cx="1195" cy="526.3906" fill="#84BE84" rx="6" ry="6" style="stroke: #038048; stroke-width: 2.0;"/><text fill="#000000" font-family="sans-serif" font-size="22" lengthAdjust="spacingAndGlyphs" textLength="340" x="1213" y="535.2285">isLeftCollision(actor:Actor):boolean</text><ellipse cx="1195" cy="554.0625" fill="#84BE84" rx="6" ry="6" style="stroke: #038048; stroke-width: 2.0;"/><text fill="#000000" font-family="sans-serif" font-size="22" lengthAdjust="spacingAndGlyphs" textLength="350" x="1213" y="562.9004">isRightCollision(actor:Actor):boolean</text><ellipse cx="1195" cy="581.7344" fill="#84BE84" rx="6" ry="6" style="stroke: #038048; stroke-width: 2.0;"/><text fill="#000000" font-family="sans-serif" font-size="22" lengthAdjust="spacingAndGlyphs" textLength="338" x="1213" y="590.5723">isTopCollision(actor:Actor):boolean</text><ellipse cx="1195" cy="609.4063" fill="#84BE84" rx="6" ry="6" style="stroke: #038048; stroke-width: 2.0;"/><text fill="#000000" font-family="sans-serif" font-size="22" lengthAdjust="spacingAndGlyphs" textLength="360" x="1213" y="618.2441">isDownCollision(actor:Actor):boolean</text><ellipse cx="1195" cy="637.0781" fill="#84BE84" rx="6" ry="6" style="stroke: #038048; stroke-width: 2.0;"/><text fill="#000000" font-family="sans-serif" font-size="22" lengthAdjust="spacingAndGlyphs" textLength="414" x="1213" y="645.916">isOnTopOfEachOther(actor:Actor):boolean</text><!--class Box--><rect fill="#FEFECE" filter="url(#fexwmq6smffnw)" height="345.0469" id="Box" style="stroke: #A80036; stroke-width: 3.0;" width="270" x="617" y="778"/><ellipse cx="723.5" cy="810" fill="#ADD1B2" rx="22" ry="22" style="stroke: #A80036; stroke-width: 2.0;"/><path d="M729.0313,801.75 Q729.3438,801.3125 729.7188,801.0938 Q730.0938,800.875 730.5313,800.875 Q731.2813,800.875 731.75,801.3906 Q732.2188,801.9063 732.2188,803.125 L732.2188,806.0313 Q732.2188,807.25 731.75,807.7813 Q731.2813,808.3125 730.5313,808.3125 Q729.8438,808.3125 729.4375,807.9063 Q729.0313,807.5313 728.8125,806.5 Q728.7188,805.7813 728.3438,805.4063 Q727.6875,804.6563 726.4688,804.2188 Q725.25,803.7813 724,803.7813 Q722.4688,803.7813 721.2031,804.4375 Q719.9375,805.0938 718.9531,806.5938 Q717.9688,808.0938 717.9688,810.1563 L717.9688,812.3438 Q717.9688,814.8125 719.75,816.4531 Q721.5313,818.0938 724.7188,818.0938 Q726.5938,818.0938 727.9063,817.5938 Q728.6875,817.2813 729.5313,816.4063 Q730.0625,815.875 730.3594,815.7188 Q730.6563,815.5625 731.0625,815.5625 Q731.7188,815.5625 732.2344,816.0781 Q732.75,816.5938 732.75,817.2813 Q732.75,817.9688 732.0625,818.7813 Q731.0625,819.9375 729.4688,820.5938 Q727.3125,821.5 724.7188,821.5 Q721.6875,821.5 719.2813,820.25 Q717.3125,819.25 715.9375,817.1094 Q714.5625,814.9688 714.5625,812.4063 L714.5625,810.0938 Q714.5625,807.4375 715.7969,805.1406 Q717.0313,802.8438 719.2188,801.6094 Q721.4063,800.375 723.875,800.375 Q725.3438,800.375 726.6406,800.7031 Q727.9375,801.0313 729.0313,801.75 Z "/><text fill="#000000" font-family="sans-serif" font-size="24" lengthAdjust="spacingAndGlyphs" textLength="40" x="764.5" y="819.8203">Box</text><line style="stroke: #A80036; stroke-width: 3.0;" x1="619" x2="885" y1="842" y2="842"/><rect fill="none" height="12" style="stroke: #C82930; stroke-width: 2.0;" width="12" x="633" y="858"/><text fill="#000000" font-family="sans-serif" font-size="22" lengthAdjust="spacingAndGlyphs" textLength="202" x="657" y="872.8379">isHighlighted:boolean</text><rect fill="none" height="12" style="stroke: #C82930; stroke-width: 2.0;" width="12" x="633" y="885.6719"/><text fill="#000000" font-family="sans-serif" font-size="22" lengthAdjust="spacingAndGlyphs" textLength="170" x="657" y="900.5098">highlighted:Image;</text><rect fill="none" height="12" style="stroke: #C82930; stroke-width: 2.0;" width="12" x="633" y="913.3438"/><text fill="#000000" font-family="sans-serif" font-size="22" lengthAdjust="spacingAndGlyphs" textLength="202" x="657" y="928.1816">notHighlighted:Image;</text><line style="stroke: #A80036; stroke-width: 3.0;" x1="619" x2="885" y1="941.0156" y2="941.0156"/><ellipse cx="639" cy="963.0156" fill="#84BE84" rx="6" ry="6" style="stroke: #038048; stroke-width: 2.0;"/><text fill="#000000" font-family="sans-serif" font-size="22" lengthAdjust="spacingAndGlyphs" textLength="140" x="657" y="971.8535">Box(x:int,y:int)</text><ellipse cx="639" cy="990.6875" fill="#84BE84" rx="6" ry="6" style="stroke: #038048; stroke-width: 2.0;"/><text fill="#000000" font-family="sans-serif" font-size="22" lengthAdjust="spacingAndGlyphs" textLength="154" x="657" y="999.5254">move(x:int,y:int)</text><rect fill="#F24D5C" height="12" style="stroke: #C82930; stroke-width: 2.0;" width="12" x="633" y="1012.3594"/><text fill="#000000" font-family="sans-serif" font-size="22" lengthAdjust="spacingAndGlyphs" textLength="42" x="657" y="1027.1973">init()</text><ellipse cx="639" cy="1046.0313" fill="#84BE84" rx="6" ry="6" style="stroke: #038048; stroke-width: 2.0;"/><text fill="#000000" font-family="sans-serif" font-size="22" lengthAdjust="spacingAndGlyphs" textLength="218" x="657" y="1054.8691">isHighlighted():boolean</text><ellipse cx="639" cy="1073.7031" fill="#84BE84" rx="6" ry="6" style="stroke: #038048; stroke-width: 2.0;"/><text fill="#000000" font-family="sans-serif" font-size="22" lengthAdjust="spacingAndGlyphs" textLength="150" x="657" y="1082.541">setHighlighted()</text><ellipse cx="639" cy="1101.375" fill="#84BE84" rx="6" ry="6" style="stroke: #038048; stroke-width: 2.0;"/><text fill="#000000" font-family="sans-serif" font-size="22" lengthAdjust="spacingAndGlyphs" textLength="144" x="657" y="1110.2129">unHighlighted()</text><!--class Floor--><rect fill="#FEFECE" filter="url(#fexwmq6smffnw)" height="151.3438" id="Floor" style="stroke: #A80036; stroke-width: 3.0;" width="202" x="957" y="875"/><ellipse cx="1023.9" cy="907" fill="#ADD1B2" rx="22" ry="22" style="stroke: #A80036; stroke-width: 2.0;"/><path d="M1029.4313,898.75 Q1029.7438,898.3125 1030.1188,898.0938 Q1030.4938,897.875 1030.9313,897.875 Q1031.6813,897.875 1032.15,898.3906 Q1032.6188,898.9063 1032.6188,900.125 L1032.6188,903.0313 Q1032.6188,904.25 1032.15,904.7813 Q1031.6813,905.3125 1030.9313,905.3125 Q1030.2438,905.3125 1029.8375,904.9063 Q1029.4313,904.5313 1029.2125,903.5 Q1029.1188,902.7813 1028.7438,902.4063 Q1028.0875,901.6563 1026.8688,901.2188 Q1025.65,900.7813 1024.4,900.7813 Q1022.8688,900.7813 1021.6031,901.4375 Q1020.3375,902.0938 1019.3531,903.5938 Q1018.3688,905.0938 1018.3688,907.1563 L1018.3688,909.3438 Q1018.3688,911.8125 1020.15,913.4531 Q1021.9313,915.0938 1025.1188,915.0938 Q1026.9938,915.0938 1028.3063,914.5938 Q1029.0875,914.2813 1029.9313,913.4063 Q1030.4625,912.875 1030.7594,912.7188 Q1031.0563,912.5625 1031.4625,912.5625 Q1032.1188,912.5625 1032.6344,913.0781 Q1033.15,913.5938 1033.15,914.2813 Q1033.15,914.9688 1032.4625,915.7813 Q1031.4625,916.9375 1029.8688,917.5938 Q1027.7125,918.5 1025.1188,918.5 Q1022.0875,918.5 1019.6813,917.25 Q1017.7125,916.25 1016.3375,914.1094 Q1014.9625,911.9688 1014.9625,909.4063 L1014.9625,907.0938 Q1014.9625,904.4375 1016.1969,902.1406 Q1017.4313,899.8438 1019.6188,898.6094 Q1021.8063,897.375 1024.275,897.375 Q1025.7438,897.375 1027.0406,897.7031 Q1028.3375,898.0313 1029.4313,898.75 Z "/><text fill="#000000" font-family="sans-serif" font-size="24" lengthAdjust="spacingAndGlyphs" textLength="56" x="1060.1" y="916.8203">Floor</text><line style="stroke: #A80036; stroke-width: 3.0;" x1="959" x2="1157" y1="939" y2="939"/><line style="stroke: #A80036; stroke-width: 3.0;" x1="959" x2="1157" y1="955" y2="955"/><ellipse cx="979" cy="977" fill="#84BE84" rx="6" ry="6" style="stroke: #038048; stroke-width: 2.0;"/><text fill="#000000" font-family="sans-serif" font-size="22" lengthAdjust="spacingAndGlyphs" textLength="150" x="997" y="985.8379">Floor(x:int,y:int)</text><rect fill="#F24D5C" height="12" style="stroke: #C82930; stroke-width: 2.0;" width="12" x="973" y="998.6719"/><text fill="#000000" font-family="sans-serif" font-size="22" lengthAdjust="spacingAndGlyphs" textLength="42" x="997" y="1013.5098">init()</text><!--class Player--><rect fill="#FEFECE" filter="url(#fexwmq6smffnw)" height="206.6875" id="Player" style="stroke: #A80036; stroke-width: 3.0;" width="352" x="1230" y="848"/><ellipse cx="1363.5" cy="880" fill="#ADD1B2" rx="22" ry="22" style="stroke: #A80036; stroke-width: 2.0;"/><path d="M1369.0313,871.75 Q1369.3438,871.3125 1369.7188,871.0938 Q1370.0938,870.875 1370.5313,870.875 Q1371.2813,870.875 1371.75,871.3906 Q1372.2188,871.9063 1372.2188,873.125 L1372.2188,876.0313 Q1372.2188,877.25 1371.75,877.7813 Q1371.2813,878.3125 1370.5313,878.3125 Q1369.8438,878.3125 1369.4375,877.9063 Q1369.0313,877.5313 1368.8125,876.5 Q1368.7188,875.7813 1368.3438,875.4063 Q1367.6875,874.6563 1366.4688,874.2188 Q1365.25,873.7813 1364,873.7813 Q1362.4688,873.7813 1361.2031,874.4375 Q1359.9375,875.0938 1358.9531,876.5938 Q1357.9688,878.0938 1357.9688,880.1563 L1357.9688,882.3438 Q1357.9688,884.8125 1359.75,886.4531 Q1361.5313,888.0938 1364.7188,888.0938 Q1366.5938,888.0938 1367.9063,887.5938 Q1368.6875,887.2813 1369.5313,886.4063 Q1370.0625,885.875 1370.3594,885.7188 Q1370.6563,885.5625 1371.0625,885.5625 Q1371.7188,885.5625 1372.2344,886.0781 Q1372.75,886.5938 1372.75,887.2813 Q1372.75,887.9688 1372.0625,888.7813 Q1371.0625,889.9375 1369.4688,890.5938 Q1367.3125,891.5 1364.7188,891.5 Q1361.6875,891.5 1359.2813,890.25 Q1357.3125,889.25 1355.9375,887.1094 Q1354.5625,884.9688 1354.5625,882.4063 L1354.5625,880.0938 Q1354.5625,877.4375 1355.7969,875.1406 Q1357.0313,872.8438 1359.2188,871.6094 Q1361.4063,870.375 1363.875,870.375 Q1365.3438,870.375 1366.6406,870.7031 Q1367.9375,871.0313 1369.0313,871.75 Z "/><text fill="#000000" font-family="sans-serif" font-size="24" lengthAdjust="spacingAndGlyphs" textLength="68" x="1404.5" y="889.8203">Player</text><line style="stroke: #A80036; stroke-width: 3.0;" x1="1232" x2="1580" y1="912" y2="912"/><line style="stroke: #A80036; stroke-width: 3.0;" x1="1232" x2="1580" y1="928" y2="928"/><ellipse cx="1252" cy="950" fill="#84BE84" rx="6" ry="6" style="stroke: #038048; stroke-width: 2.0;"/><text fill="#000000" font-family="sans-serif" font-size="22" lengthAdjust="spacingAndGlyphs" textLength="162" x="1270" y="958.8379">Player(x:int,y:int)</text><ellipse cx="1252" cy="977.6719" fill="#84BE84" rx="6" ry="6" style="stroke: #038048; stroke-width: 2.0;"/><text fill="#000000" font-family="sans-serif" font-size="22" lengthAdjust="spacingAndGlyphs" textLength="154" x="1270" y="986.5098">move(x:int,y:int)</text><ellipse cx="1252" cy="1005.3438" fill="#84BE84" rx="6" ry="6" style="stroke: #038048; stroke-width: 2.0;"/><text fill="#000000" font-family="sans-serif" font-size="22" lengthAdjust="spacingAndGlyphs" textLength="300" x="1270" y="1014.1816">setPlayerDirection(direction:int)</text><rect fill="#F24D5C" height="12" style="stroke: #C82930; stroke-width: 2.0;" width="12" x="1246" y="1027.0156"/><text fill="#000000" font-family="sans-serif" font-size="22" lengthAdjust="spacingAndGlyphs" textLength="42" x="1270" y="1041.8535">init()</text><!--class Spot--><rect fill="#FEFECE" filter="url(#fexwmq6smffnw)" height="151.3438" id="Spot" style="stroke: #A80036; stroke-width: 3.0;" width="198" x="1653" y="875"/><ellipse cx="1720.8" cy="907" fill="#ADD1B2" rx="22" ry="22" style="stroke: #A80036; stroke-width: 2.0;"/><path d="M1726.3313,898.75 Q1726.6438,898.3125 1727.0188,898.0938 Q1727.3938,897.875 1727.8313,897.875 Q1728.5813,897.875 1729.05,898.3906 Q1729.5188,898.9063 1729.5188,900.125 L1729.5188,903.0313 Q1729.5188,904.25 1729.05,904.7813 Q1728.5813,905.3125 1727.8313,905.3125 Q1727.1438,905.3125 1726.7375,904.9063 Q1726.3313,904.5313 1726.1125,903.5 Q1726.0188,902.7813 1725.6438,902.4063 Q1724.9875,901.6563 1723.7688,901.2188 Q1722.55,900.7813 1721.3,900.7813 Q1719.7688,900.7813 1718.5031,901.4375 Q1717.2375,902.0938 1716.2531,903.5938 Q1715.2688,905.0938 1715.2688,907.1563 L1715.2688,909.3438 Q1715.2688,911.8125 1717.05,913.4531 Q1718.8313,915.0938 1722.0188,915.0938 Q1723.8938,915.0938 1725.2063,914.5938 Q1725.9875,914.2813 1726.8313,913.4063 Q1727.3625,912.875 1727.6594,912.7188 Q1727.9563,912.5625 1728.3625,912.5625 Q1729.0188,912.5625 1729.5344,913.0781 Q1730.05,913.5938 1730.05,914.2813 Q1730.05,914.9688 1729.3625,915.7813 Q1728.3625,916.9375 1726.7688,917.5938 Q1724.6125,918.5 1722.0188,918.5 Q1718.9875,918.5 1716.5813,917.25 Q1714.6125,916.25 1713.2375,914.1094 Q1711.8625,911.9688 1711.8625,909.4063 L1711.8625,907.0938 Q1711.8625,904.4375 1713.0969,902.1406 Q1714.3313,899.8438 1716.5188,898.6094 Q1718.7063,897.375 1721.175,897.375 Q1722.6438,897.375 1723.9406,897.7031 Q1725.2375,898.0313 1726.3313,898.75 Z "/><text fill="#000000" font-family="sans-serif" font-size="24" lengthAdjust="spacingAndGlyphs" textLength="50" x="1757.2" y="916.8203">Spot</text><line style="stroke: #A80036; stroke-width: 3.0;" x1="1655" x2="1849" y1="939" y2="939"/><line style="stroke: #A80036; stroke-width: 3.0;" x1="1655" x2="1849" y1="955" y2="955"/><ellipse cx="1675" cy="977" fill="#84BE84" rx="6" ry="6" style="stroke: #038048; stroke-width: 2.0;"/><text fill="#000000" font-family="sans-serif" font-size="22" lengthAdjust="spacingAndGlyphs" textLength="146" x="1693" y="985.8379">Spot(x:int,y:int)</text><rect fill="#F24D5C" height="12" style="stroke: #C82930; stroke-width: 2.0;" width="12" x="1669" y="998.6719"/><text fill="#000000" font-family="sans-serif" font-size="22" lengthAdjust="spacingAndGlyphs" textLength="42" x="1693" y="1013.5098">init()</text><!--class Wall--><rect fill="#FEFECE" filter="url(#fexwmq6smffnw)" height="151.3438" id="Wall" style="stroke: #A80036; stroke-width: 3.0;" width="194" x="1921" y="875"/><ellipse cx="1987.9" cy="907" fill="#ADD1B2" rx="22" ry="22" style="stroke: #A80036; stroke-width: 2.0;"/><path d="M1993.4313,898.75 Q1993.7438,898.3125 1994.1188,898.0938 Q1994.4938,897.875 1994.9313,897.875 Q1995.6813,897.875 1996.15,898.3906 Q1996.6188,898.9063 1996.6188,900.125 L1996.6188,903.0313 Q1996.6188,904.25 1996.15,904.7813 Q1995.6813,905.3125 1994.9313,905.3125 Q1994.2438,905.3125 1993.8375,904.9063 Q1993.4313,904.5313 1993.2125,903.5 Q1993.1188,902.7813 1992.7438,902.4063 Q1992.0875,901.6563 1990.8688,901.2188 Q1989.65,900.7813 1988.4,900.7813 Q1986.8688,900.7813 1985.6031,901.4375 Q1984.3375,902.0938 1983.3531,903.5938 Q1982.3688,905.0938 1982.3688,907.1563 L1982.3688,909.3438 Q1982.3688,911.8125 1984.15,913.4531 Q1985.9313,915.0938 1989.1188,915.0938 Q1990.9938,915.0938 1992.3063,914.5938 Q1993.0875,914.2813 1993.9313,913.4063 Q1994.4625,912.875 1994.7594,912.7188 Q1995.0563,912.5625 1995.4625,912.5625 Q1996.1188,912.5625 1996.6344,913.0781 Q1997.15,913.5938 1997.15,914.2813 Q1997.15,914.9688 1996.4625,915.7813 Q1995.4625,916.9375 1993.8688,917.5938 Q1991.7125,918.5 1989.1188,918.5 Q1986.0875,918.5 1983.6813,917.25 Q1981.7125,916.25 1980.3375,914.1094 Q1978.9625,911.9688 1978.9625,909.4063 L1978.9625,907.0938 Q1978.9625,904.4375 1980.1969,902.1406 Q1981.4313,899.8438 1983.6188,898.6094 Q1985.8063,897.375 1988.275,897.375 Q1989.7438,897.375 1991.0406,897.7031 Q1992.3375,898.0313 1993.4313,898.75 Z "/><text fill="#000000" font-family="sans-serif" font-size="24" lengthAdjust="spacingAndGlyphs" textLength="48" x="2024.1" y="916.8203">Wall</text><line style="stroke: #A80036; stroke-width: 3.0;" x1="1923" x2="2113" y1="939" y2="939"/><line style="stroke: #A80036; stroke-width: 3.0;" x1="1923" x2="2113" y1="955" y2="955"/><ellipse cx="1943" cy="977" fill="#84BE84" rx="6" ry="6" style="stroke: #038048; stroke-width: 2.0;"/><text fill="#000000" font-family="sans-serif" font-size="22" lengthAdjust="spacingAndGlyphs" textLength="142" x="1961" y="985.8379">Wall(x:int,y:int)</text><rect fill="#F24D5C" height="12" style="stroke: #C82930; stroke-width: 2.0;" width="12" x="1937" y="998.6719"/><text fill="#000000" font-family="sans-serif" font-size="22" lengthAdjust="spacingAndGlyphs" textLength="42" x="1961" y="1013.5098">init()</text><!--link SokobanUI to GameMenu--><path d="M290,479.416 C290,584.888 290,759.966 290,863.936 " fill="none" id="SokobanUI-&gt;GameMenu" style="stroke: #A80036; stroke-width: 2.0;"/><polygon fill="#A80036" points="290,874.39,298,856.39,290,864.39,282,856.39,290,874.39" style="stroke: #A80036; stroke-width: 2.0;"/><!--link GameMenu to GameBoard--><path d="M290,1027.162 C290,1078.76 290,1152.43 290,1232.348 " fill="none" id="GameMenu-&gt;GameBoard" style="stroke: #A80036; stroke-width: 2.0;"/><polygon fill="#A80036" points="290,1243.15,298,1225.15,290,1233.15,282,1225.15,290,1243.15" style="stroke: #A80036; stroke-width: 2.0;"/><!--reverse link Actor to Box--><path d="M1140.862,594.086 C1068.504,651.894 991.05,716.03 922,778 C910.472,788.346 898.726,799.272 887.064,810.396 " fill="none" id="Actor&lt;-Box" style="stroke: #A80036; stroke-width: 2.0;"/><polygon fill="none" points="1132.58,582.784,1172.608,568.864,1149.998,604.708,1132.58,582.784" style="stroke: #A80036; stroke-width: 2.0;"/><!--reverse link Actor to Floor--><path d="M1217.654,693.002 C1175.372,760.802 1134.226,826.776 1104.296,874.766 " fill="none" id="Actor&lt;-Floor" style="stroke: #A80036; stroke-width: 2.0;"/><polygon fill="none" points="1206.088,685.092,1239.134,658.56,1229.846,699.908,1206.088,685.092" style="stroke: #A80036; stroke-width: 2.0;"/><!--reverse link Actor to Player--><path d="M1406,698.828 C1406,752.59 1406,804.91 1406,847.686 " fill="none" id="Actor&lt;-Player" style="stroke: #A80036; stroke-width: 2.0;"/><polygon fill="none" points="1392,698.56,1406,658.56,1420,698.56,1392,698.56" style="stroke: #A80036; stroke-width: 2.0;"/><!--reverse link Actor to Spot--><path d="M1593.262,693.002 C1635.304,760.802 1676.212,826.776 1705.97,874.766 " fill="none" id="Actor&lt;-Spot" style="stroke: #A80036; stroke-width: 2.0;"/><polygon fill="none" points="1581.088,699.932,1571.906,658.56,1604.884,685.176,1581.088,699.932" style="stroke: #A80036; stroke-width: 2.0;"/><!--reverse link Actor to Wall--><path d="M1671.372,586.634 C1743.968,644.948 1820.602,711.204 1886,778 C1914.86,807.478 1943.29,843.196 1966.332,874.348 " fill="none" id="Actor&lt;-Wall" style="stroke: #A80036; stroke-width: 2.0;"/><polygon fill="none" points="1662.076,597.13,1639.458,561.29,1679.488,575.202,1662.076,597.13" style="stroke: #A80036; stroke-width: 2.0;"/><!--
@startuml Sokoban
scale 2

package de.hems.view #EEE{
    SokobanUI - -> GameMenu
    GameMenu - -> GameBoard
}

package "de.hems.model" #CCC{
    Actor <|- - Box
    Actor <|- - Floor
    Actor <|- - Player
    Actor <|- - Spot
    Actor <|- - Wall
}

class Actor {
    -SIZE: int
    -x:int
    -y:int
    -image:Image
    +Actor(x:int,y:int)
    +getImage()
    +setImage(image:Image)
    +setX(x:int)
    +getX():int
    +setY(y:int)
    +getY():int
    +isLeftCollision(actor:Actor):boolean
    +isRightCollision(actor:Actor):boolean
    +isTopCollision(actor:Actor):boolean
    +isDownCollision(actor:Actor):boolean
    +isOnTopOfEachOther(actor:Actor):boolean
}

class Box{
    -isHighlighted:boolean
    -highlighted:Image;
    -notHighlighted:Image;
    +Box(x:int,y:int)
    +move(x:int,y:int)
    -init()
    +isHighlighted():boolean
    +setHighlighted()
    +unHighlighted()
}

class Floor{
    +Floor(x:int,y:int)
    -init()
}
class Player{
    +Player(x:int,y:int)
    +move(x:int,y:int)
    +setPlayerDirection(direction:int)
    -init()
}

class Spot{
    +Spot(x:int,y:int)
    -init()
}

class Wall{
    +Wall(x:int,y:int)
    -init()
}

class SokobanUI{
    +main(args:String[])
    +SobokanUI()
    -initUI()
}

class GameMenu{
    -frame:JFrame
    +GameMenu(frame:JFrame)
}

class GameBoard{
    -TOP:int
    -RIGHT:int
    -DOWN:int
    -LEFT:int
    -frame:JFrame
    -winDialog:JDialog
    -mItemExit:JMenuItem
    -mItemRestart:JMenuItem
    -jbNextMap:JButton
    -jbRestartMap:JButton
    -jbExit:JButton
    -walls:ArrayList<Wall>
    -boxes:ArrayList<Box>
    -spots:ArrayList<Spot>
    -floor:ArrayList<Floor>
    -player:Player
    -isGameFinish:boolean
    -OFFSET:int
    -SIZE:int
    -width:int
    +GameBoard(frame,JFrame)
    -initGameBoard()
    -paintWorld(g:Graphics)
    +paintComponent(g:Graphics)
    +keyPressed(e:KeyEvent)
    -isGameFinish()
    -isBoxCollision(direction:int)
    -isWallCollision(actor:Actor,direction:int)
    +actionPerformed(e:ActionEvent)
    -restartGame()
}





@enduml

PlantUML version 1.2019.09(Mon Aug 26 18:19:51 CEST 2019)
(GPL source distribution)
Java Runtime: Java(TM) SE Runtime Environment
JVM: Java HotSpot(TM) Client VM
Java Version: 1.8.0_241-b07
Operating System: Windows 10
OS Version: 10.0
Default Encoding: Cp1252
Language: de
Country: DE
--></g></svg>